<svg width="14" height="14" viewBox="0 0 14 14" fill="none" xmlns="http://www.w3.org/2000/svg">
<path d="M3.51121 13.3392C3.51121 13.1936 3.48321 13.1208 3.42721 13.1208L3.04081 13.3056C3.04081 13.2272 2.99601 13.1712 2.90641 13.1376L2.77201 13.1208C2.68241 13.1208 2.57041 13.16 2.43601 13.2384C2.41361 13.1824 2.38561 13.1264 2.35201 13.0704C2.31841 13.0144 2.29041 12.964 2.26801 12.9192C2.12241 12.6392 1.97681 12.3312 1.83121 11.9952C1.69681 11.648 1.56801 11.3176 1.44481 11.004C1.33281 10.6904 1.24321 10.444 1.17601 10.2648C1.13121 10.1192 1.08081 9.9008 1.02481 9.6096C0.968812 9.3184 0.912812 8.9488 0.856812 8.5008C0.980012 8.5792 1.07521 8.6184 1.14241 8.6184C1.22081 8.6184 1.29361 8.5008 1.36081 8.2656C1.39441 8.3104 1.45601 8.3328 1.54561 8.3328C1.61281 8.3328 1.66321 8.3104 1.69681 8.2656L1.96561 7.8624L2.26801 7.9632H2.28481C2.30721 7.9632 2.32961 7.952 2.35201 7.9296C2.37441 7.9072 2.40801 7.8848 2.45281 7.8624C2.54241 7.8064 2.60961 7.7784 2.65441 7.7784L2.70481 7.7952C2.98481 7.9296 3.16401 8.176 3.24241 8.5344C3.44401 9.3856 3.64561 9.8112 3.84721 9.8112C4.04881 9.8112 4.28401 9.5984 4.55281 9.1728C4.68721 8.96 4.82161 8.7136 4.95601 8.4336C5.10161 8.1536 5.24721 7.84 5.39281 7.4928C5.41521 7.6272 5.43761 7.6944 5.46001 7.6944C5.51601 7.6944 5.61121 7.5544 5.74561 7.2744C5.89121 6.9944 6.12081 6.608 6.43441 6.1152C6.61361 5.8128 6.83761 5.4712 7.10641 5.0904C7.38641 4.7096 7.68321 4.3176 7.99681 3.9144C8.31041 3.5112 8.61281 3.1304 8.90401 2.772C9.20641 2.4136 9.47521 2.1056 9.71041 1.848C9.94561 1.5904 10.1192 1.4224 10.2312 1.344C10.6568 1.0528 10.9928 0.772798 11.2392 0.503998C11.228 0.582397 11.2112 0.655197 11.1888 0.722398C11.1776 0.778398 11.172 0.817598 11.172 0.839997C11.172 0.884797 11.1944 0.907198 11.2392 0.907198L11.7096 0.671998V0.739198C11.7096 0.828798 11.732 0.873598 11.7768 0.873598C11.8104 0.873598 11.8776 0.823198 11.9784 0.722398C12.0792 0.621598 12.1352 0.548798 12.1464 0.503998L12.1128 0.739198L12.684 0.403198L12.5496 0.705598C12.7288 0.582398 12.8576 0.520798 12.936 0.520798C12.9808 0.520798 13.0144 0.548797 13.0368 0.604797C13.0592 0.649598 13.0704 0.694398 13.0704 0.739198C13.0704 0.806397 13.0424 0.884797 12.9864 0.974398C12.9304 1.064 12.8576 1.1704 12.768 1.2936C12.7008 1.3832 12.5888 1.5176 12.432 1.6968C12.2864 1.8648 12.0624 2.1168 11.76 2.4528C11.4576 2.7776 11.0544 3.2312 10.5504 3.8136C10.416 3.9592 10.2088 4.2168 9.92881 4.5864C9.64881 4.9448 9.32961 5.3648 8.97121 5.8464C8.62401 6.3168 8.27681 6.7928 7.92961 7.2744C7.58241 7.756 7.27441 8.1928 7.00561 8.5848C6.73681 8.9656 6.54641 9.2512 6.43441 9.4416L5.39281 11.2056C5.16881 11.5864 4.98401 11.9 4.83841 12.1464C4.69281 12.3816 4.58081 12.544 4.50241 12.6336C4.33441 12.8352 4.14961 13.0144 3.94801 13.1712L3.79681 13.0872L3.66241 13.1712L3.51121 13.3392Z" fill="#00875A"/>
</svg>
