<svg width="12" height="13" viewBox="0 0 12 13" fill="none" xmlns="http://www.w3.org/2000/svg">
<path d="M1.48002 11.7724C1.28002 11.7724 1.13336 11.704 1.04002 11.5671C0.946691 11.4302 0.900024 11.256 0.900024 11.0444C0.900024 10.8702 1.02002 10.6213 1.26002 10.2978C1.51336 9.96178 1.84002 9.56978 2.24002 9.12178C2.65336 8.66134 3.10669 8.16978 3.60002 7.64711C4.09336 7.12445 4.59336 6.59556 5.10002 6.06045C4.48669 5.08978 4.02002 4.32445 3.70002 3.76445C3.38002 3.192 3.22002 2.744 3.22002 2.42045C3.22002 2.19645 3.30002 1.99111 3.46002 1.80445C3.62002 1.60534 3.78002 1.50578 3.94002 1.50578C4.12669 1.50578 4.30669 1.61156 4.48002 1.82311C4.66669 2.02223 4.89336 2.36445 5.16003 2.84978C5.42669 3.32267 5.78669 3.976 6.24003 4.80978C6.97336 3.98845 7.58003 3.31645 8.06003 2.79378C8.55336 2.27111 8.94669 1.86667 9.24002 1.58045C9.54669 1.29423 9.78669 1.09511 9.96002 0.983114C10.1467 0.85867 10.3067 0.796448 10.44 0.796448C10.6 0.796448 10.7334 0.85867 10.84 0.983114C10.9467 1.09511 11 1.28178 11 1.54311C11 1.792 10.8734 2.09689 10.62 2.45778C10.38 2.81867 10.06 3.21067 9.66003 3.63378C9.26003 4.05689 8.82669 4.49245 8.36002 4.94045C7.90669 5.376 7.47336 5.79911 7.06003 6.20978C7.72669 7.28 8.36669 8.21334 8.98003 9.00978C9.59336 9.79378 10.0867 10.4409 10.46 10.9511C10.8467 11.4613 11.04 11.8347 11.04 12.0711C11.04 12.2329 11 12.3573 10.92 12.4444C10.84 12.5191 10.6867 12.5564 10.46 12.5564C10.3 12.5564 10.1134 12.4942 9.90003 12.3698C9.68669 12.2453 9.41336 12.0027 9.08003 11.6418C8.76003 11.2809 8.34003 10.7582 7.82002 10.0738C7.31336 9.37689 6.68669 8.46845 5.94002 7.34845C5.47336 7.83378 5.00669 8.33778 4.54002 8.86045C4.08669 9.37067 3.65336 9.84978 3.24002 10.2978C2.84002 10.7333 2.48669 11.088 2.18002 11.3618C1.87336 11.6356 1.64002 11.7724 1.48002 11.7724Z" fill="#DE350B"/>
</svg>
