<svg width="7" height="14" viewBox="0 0 7 14" fill="none" xmlns="http://www.w3.org/2000/svg">
<path d="M1.96152 9.77964C1.55148 9.77964 1.2301 9.69309 0.997382 9.52C0.76466 9.33673 0.648298 9.05673 0.648298 8.68C0.648298 8.344 0.76466 8.02837 0.997382 7.73309C1.2301 7.42764 1.52932 7.12727 1.89503 6.832C2.27182 6.53673 2.65969 6.23637 3.05864 5.93091C3.513 5.58473 3.9175 5.24364 4.27212 4.90764C4.62675 4.57164 4.80406 4.24582 4.80406 3.93018C4.80406 3.43128 4.4993 3.01891 3.88979 2.69309C3.29136 2.36728 2.41588 2.20437 1.26335 2.20437C1.18578 2.20437 1.09712 2.16873 0.997382 2.09746C0.908726 2.016 0.864398 1.83782 0.864398 1.56291C0.864398 1.08437 1.18024 0.845093 1.81191 0.845093C2.79821 0.845093 3.62382 0.967276 4.28874 1.21164C4.96475 1.44582 5.47452 1.75128 5.81806 2.128C6.17269 2.49455 6.35 2.88655 6.35 3.304C6.35 3.85382 6.22256 4.34764 5.96767 4.78546C5.72387 5.21309 5.40803 5.6 5.02016 5.94618C4.64337 6.28218 4.24996 6.59273 3.83992 6.87782C3.34123 7.21382 2.92565 7.51418 2.59319 7.77891C2.27182 8.03346 2.11113 8.24218 2.11113 8.40509C2.11113 8.456 2.17208 8.48146 2.29398 8.48146C2.49346 8.48146 2.68739 8.46618 2.87579 8.43564C3.07526 8.39491 3.25812 8.37455 3.42435 8.37455C3.49084 8.37455 3.55179 8.39491 3.6072 8.43564C3.66261 8.47637 3.69031 8.568 3.69031 8.71055C3.69031 8.96509 3.54625 9.20946 3.25812 9.44364C2.98106 9.66764 2.54887 9.77964 1.96152 9.77964ZM2.37709 12.5593C2.37709 12.7018 2.33277 12.824 2.24411 12.9258C2.16654 13.0276 2.04463 13.0989 1.8784 13.1396C1.80083 13.3127 1.67893 13.4349 1.5127 13.5062C1.35755 13.5775 1.15253 13.6131 0.897644 13.6131C0.631675 13.6131 0.415576 13.5418 0.249345 13.3993C0.0831151 13.2669 0 13.0735 0 12.8189C0 12.432 0.121902 12.1316 0.365707 11.9178C0.609511 11.704 0.892103 11.5971 1.21348 11.5971C1.55702 11.5971 1.83408 11.6633 2.04463 11.7956C2.26627 11.928 2.37709 12.1825 2.37709 12.5593Z" fill="#FF991F"/>
</svg>
